<?xml version="1.0" encoding="utf-8"?>
<svg version="1.1" id="halo_1_" xmlns="http://www.w3.org/2000/svg" xmlns:xlink="http://www.w3.org/1999/xlink" x="0px" y="0px"
	 viewBox="0 0 248 92" style="enable-background:new 0 0 248 92;" xml:space="preserve">
<g id="halo">
	<g>
		<path class="st0" d="M1,74.4h0.9v-4.6H1V74.4z M58.7,8.5c-1.2,0-1.8,0.9-1.8,2.7h-0.9c-1.2,0-2.1-2.4-2.7-7.3l-3.7,0.9
			C47.1,25,45.3,35,44,35l4.6-31.1h-2.7v0.9l0.9,0.9v3.7h-0.9l-0.9-0.9v6.4l0.9,0.9H44v0.9h1.8v1.8H44v1.8l0.9,0.9h-1.8v0.9l0.9,6.4
			h-1.8l0.9,0.9l-0.9,4.6H33L19.3,35l4.6-24.7V9.4L23,8.5c-1.2,0-1.8,0.9-1.8,2.7l-2.7-0.9c0-3.7-0.6-5.5-1.8-5.5h-3.7v1.8H12V3.9
			h-0.9l-0.9,2.7h0.9L8.3,16.7v2.7l0.9,0.9H8.3c-3.1,9.3-5.8,24.3-8.2,44.9L1,68.9h0.9L2.8,68h0.9l0.9,0.9v0.9l-0.9,0.9v2.7l1.8,1.8
			l0.9-6.4h0.9c0,4.9,0.6,7.3,1.8,7.3H12c1.8-4.9,3.7-14.7,5.5-29.3l8.2,0.9l11.9-0.9h0.9C34.9,63.3,33,73.7,33,78.1
			c0,1.8,0.6,2.7,1.8,2.7h0.9v-3.7h0.9c0,3.7,0.6,5.5,1.8,5.5h2.7l2.7-9.2h0.9v7.3L44,81.7l0.9,0.9h0.9C52,54.3,56.5,29.6,59.6,8.5
			H58.7z M7.4,42.4H6.5v-3.7h0.9V42.4z M9.2,31.4L8.3,35H7.4v-0.9l0.9-4.6h0.9V31.4z M10.2,28.6H9.2V25h0.9V28.6z M12,16.7L11.1,24
			h-0.9v-1.8l0.9-7.3H12V16.7z M12.9,14H12V7.6h0.9V14z M40.4,58.8h-0.9v-3.7h0.9V58.8z M42.2,49.7l-0.9,4.6h-0.9v-0.9l0.9-5.5h0.9
			V49.7z M46.8,66.2l-0.9,6.4h-0.9v-2.7l0.9-4.6h0.9V66.2z M99.7,62.5h-1.8l0.9,5.5h0.9V62.5z M111.6,37.8v-0.9l5.5-0.9V35h-6.4
			L103.3,3c-4.5,0-6.9-0.9-7.3-2.7c-3.7,0-7.7,1.2-11.9,3.7V3L85,2.1h-3.7l-4.6,12.8c1.8,0,2.7,0.6,2.7,1.8v0.9h-0.9l-0.9-0.9h-0.9
			L75,20.4v0.9l0.9,0.9H75L74,21.3l-0.9,4.6v3.7H74l0.9-0.9L74,33.2c-1.2,0-1.8-0.9-1.8-2.7h-0.9L55.7,68l2.7,2.7l-0.9,5.5l1.8,1.8
			c0-4.9,0.9-7.3,2.7-7.3H63l-1.8,5.5l2.7,1.8v-0.9h0.9l0.9,0.9h2.7v-1.8c2-1.8,3.9-6.1,5.5-12.8c0-3.8,6.4-6.9,19.2-9.2v-1.8
			l-4.6,0.9L85,52.4l-6.4,1.8v-1.8l20.1-4.6v5.5l0.9,0.9h-0.9l-0.9-0.9h-0.9V57l0.9-0.9h0.9L97.8,57v3.7h0.9v-2.7h1.8v2.7l-0.9,0.9
			c1.3,0,2.2,2.7,2.7,8.2v0.9l-2.7-1.8l1.8,11h0.9v-3.7h0.9l4.6,15.6c1.2,0,1.8-0.9,1.8-2.7h0.9l0.9,0.9h0.9l-0.9-2.7v-0.9
			c1.2,0,1.8,0.9,1.8,2.7h1.8l-2.7-13.7h0.9l0.9,0.9v-5.5l-0.9-11l0.9-0.9h-0.9l0.9-0.9l-0.9-5.5l0.9-2.7l-1.8-5.5
			c6.1-1.1,9.2-2.3,9.2-3.7v-0.9h-7.3C114.3,38.4,113.4,37.8,111.6,37.8z M69.5,43.3h-0.9l0.9-3.7h1.8L69.5,43.3z M72.2,37.8h-0.9
			v-1.8l0.9-0.9h0.9L72.2,37.8z M78.6,41.4l-0.9,0.9h-0.9l0.9-3.7h0.9V41.4z M79.5,35.9l-0.9-3.7h0.9l0.9,0.9l1.8-6.4h0.9v0.9
			l-2.7,8.2H79.5z M86.9,43.3H85v-0.9l9.2-1.8h0.9C95.1,41.7,92.4,42.7,86.9,43.3z M85,40.5h-1.8l7.3-19.2h0.9L95.1,35
			C94.5,38.7,91.1,40.5,85,40.5z M104.3,72.6l-2.7,0.9v-1.8l2.7-0.9V72.6z M112.5,74.4h-0.9l-0.9-3.7v-1.8h0.9l0.9,3.7V74.4z
			 M244.4,27.1h1.8v-4.6h-1.8V27.1z M247.2,32.5c-1.2,0-1.8,1.5-1.8,4.6h-0.9L241.7,17h0.9l0.9,0.9h1.8l-3.7-5.5v-0.9l0.9-0.9
			c-6.2-4.3-13-6.4-20.1-6.4C210.8,5.6,205,7.8,205,10.6h0.9l6.4-3.7c-14.3,13.6-22.5,24.9-24.7,33.9h-0.9v-0.9
			c2.8-7.4,6.5-14.1,11-20.1v-0.9c-9.8,12.6-14.7,21.5-14.7,26.6v1.8l0.9,6.4l-0.9,0.9l2.2,3.3l-5.8-0.8h-3.7l-4.6,0.9l-0.9-0.9
			h-0.9l-0.9,0.9V57l-17.4,3.7v-0.9l-10.1,2.7c0-2,10.7-4.8,32.1-8.2v-0.9h-0.9c-16.9,2.4-27.3,4.6-31.1,6.4l4.6-51.3l-0.9-0.9
			L142,9.4h-1.8c0-3.7-0.6-5.5-1.8-5.5h-1.8l-0.9,0.9c0,1.8-0.6,2.7-1.8,2.7l-3.7,48.5h-0.9v-4.6l0.9-3.7l-0.9-0.9L131,35h-1.8
			l0.9-6.4V25h-0.9l-3.7,41.2l2.7,3.7v2.7c-2.4,0.3-3.7,1.2-3.7,2.7v0.9h0.9l3.7,4.6h2.7l19.2-7.3l30.2-7.3v-2.7l-0.9,0.9l-6.4-0.9
			h-0.9l-0.9,0.9v-0.9c9.2-1.2,13.7-2.7,13.7-4.6v0l0.8,1.2c3.8,11.6,13,17.4,27.5,17.4h0.9l4.6-0.9c8.5-5.1,14.9-10.6,19.2-16.5
			H238c6.1-12.4,9.2-20.4,9.2-23.8V32.5z M186.7,52.7h-0.9v-7.3h0.9V52.7z M195,38l2.7-5.5h0.9l-2.7,5.5H195z M204.1,71.9l-4.6-2.7
			v-0.9l4.6,2.7V71.9z M206,64.6H205c-5.5-3.7-8.2-7.9-8.2-12.8c4.7-17.1,9.6-25.6,14.7-25.6l6.4-5.5l-0.9-0.9v-0.9l0.9,0.9l3.7-1.8
			v0.9h0.9l0.9-0.9h0.9c6.1,0.8,9.2,2,9.2,3.7v7.3c0,3.1-1.5,8-4.6,14.7C220.3,57.6,212.6,64.6,206,64.6z M226.1,52.7h-0.9l3.7-4.6
			h0.9L226.1,52.7z M232.5,47.2h-2.7l3.7-9.2h0.9l0.9,2.7L232.5,47.2z M240.8,42.6l-0.9,3.7h-0.9v-1.8l0.9-2.7h0.9V42.6z"/>
	</g>
</g>
</svg>
